<svg width="24" height="24" viewBox="0 0 24 24" fill="none" xmlns="http://www.w3.org/2000/svg">
<path fill-rule="evenodd" clip-rule="evenodd" d="M19 12C19 15.866 15.866 19 12 19C8.13401 19 5 15.866 5 12C5 8.13401 8.13401 5 12 5C15.866 5 19 8.13401 19 12ZM20 12C20 16.4183 16.4183 20 12 20C7.58172 20 4 16.4183 4 12C4 7.58172 7.58172 4 12 4C16.4183 4 20 7.58172 20 12ZM11.5755 13.6902V13.7361H12.4933V13.6902C12.4984 13.3741 12.5315 13.1103 12.5927 12.8987C12.6539 12.6871 12.7521 12.5048 12.8872 12.3518C13.0223 12.1963 13.202 12.0484 13.4264 11.9082C13.6507 11.7706 13.8419 11.6125 14 11.434C14.1606 11.2556 14.283 11.0529 14.3671 10.826C14.4538 10.5991 14.4971 10.3454 14.4971 10.065C14.4971 9.6673 14.4054 9.31294 14.2218 9.00191C14.0408 8.69089 13.7833 8.44614 13.4493 8.26769C13.1179 8.08923 12.7279 8 12.2792 8C11.8662 8 11.4901 8.08158 11.1511 8.24474C10.8145 8.4079 10.543 8.64372 10.3365 8.9522C10.1326 9.26068 10.0204 9.63161 10 10.065H10.9637C10.9841 9.76418 11.0593 9.52071 11.1893 9.33461C11.3193 9.1485 11.4812 9.01211 11.675 8.92543C11.8687 8.83875 12.0701 8.79541 12.2792 8.79541C12.5188 8.79541 12.7368 8.84512 12.9331 8.94455C13.1294 9.04398 13.2862 9.18547 13.4034 9.36902C13.5207 9.55258 13.5793 9.76928 13.5793 10.0191C13.5793 10.2205 13.5437 10.4041 13.4723 10.5698C13.4034 10.7355 13.3091 10.8821 13.1893 11.0096C13.0695 11.1345 12.9344 11.2428 12.7839 11.3346C12.5341 11.485 12.3199 11.6495 12.1415 11.8279C11.963 12.0064 11.8254 12.2396 11.7285 12.5277C11.6316 12.8158 11.5806 13.2033 11.5755 13.6902ZM11.5793 15.7973C11.7145 15.9324 11.8764 16 12.065 16C12.1925 16 12.3072 15.9694 12.4092 15.9082C12.5137 15.8445 12.5966 15.7604 12.6577 15.6558C12.7215 15.5513 12.7533 15.4366 12.7533 15.3117C12.7533 15.123 12.6858 14.9611 12.5507 14.826C12.4156 14.6909 12.2537 14.6233 12.065 14.6233C11.8764 14.6233 11.7145 14.6909 11.5793 14.826C11.4442 14.9611 11.3767 15.123 11.3767 15.3117C11.3767 15.5003 11.4442 15.6622 11.5793 15.7973Z" fill="currentColor"/>
</svg>
