<svg width="24" height="24" viewBox="0 0 24 24" fill="none" xmlns="http://www.w3.org/2000/svg">
<path d="M6 8.5V7.5C5.44772 7.5 5 7.94772 5 8.5L6 8.5ZM18 8.5H19C19 7.94772 18.5523 7.5 18 7.5V8.5ZM9.5 5V4C8.94772 4 8.5 4.44772 8.5 5H9.5ZM15.5 5H16.5C16.5 4.44772 16.0523 4 15.5 4V5ZM7 18.5C7 18 7 15.5 7 13.125C7 11.9375 7 10.7812 7 9.92188C7 9.49226 7 9.13665 7 8.88867C7 8.76493 7 8.6672 7 8.60132C7 8.56891 7 8.54224 7 8.52585C7 8.51636 7 8.51182 7 8.50653C7 8.50444 7 8.50266 7 8.50164C7 8.50137 7 8.50113 7 8.50092C7 8.50072 7 8.50055 7 8.50041C7 8.50027 7 8.50017 7 8.5001C7 8.50003 7 8.5 6 8.5C5 8.5 5 8.50003 5 8.5001C5 8.50017 5 8.50027 5 8.50041C5 8.50285 5 8.49893 5 8.50164C5 8.50266 5 8.50444 5 8.50653C5 8.5088 5 8.51938 5 8.52585C5 8.54368 5 8.56747 5 8.60132C5 8.66764 5 8.76449 5 8.88867C5 9.13683 5 9.49208 5 9.92187C5 10.7812 5 11.9375 5 13.125C5 15.5 5 18 5 18.5L7 18.5ZM18 8.5C17 8.5 17 8.50003 17 8.5001C17 8.50017 17 8.50027 17 8.50041C17 8.50055 17 8.50072 17 8.50092C17 8.50113 17 8.50137 17 8.50164C17 8.50191 17 8.50222 17 8.50256C17 8.5029 17 8.50327 17 8.50368C17 8.50409 17 8.50453 17 8.505C17 8.50548 17 8.50599 17 8.50653C17 8.50707 17 8.50764 17 8.50825C17 8.50886 17 8.5095 17 8.51017C17 8.51085 17 8.51155 17 8.51229C17 8.51303 17 8.51381 17 8.51461C17 8.51542 17 8.51626 17 8.51713C17 8.518 17 8.5189 17 8.51984C17 8.52078 17 8.52175 17 8.52275C17 8.52375 17 8.52478 17 8.52585C17 8.52691 17 8.52801 17 8.52914C17 8.53027 17 8.53144 17 8.53263C17 8.53383 17 8.53505 17 8.53631C17 8.53757 17 8.53886 17 8.54019C17 8.54151 17 8.54286 17 8.54425C17 8.54563 17 8.54705 17 8.5485C17 8.54995 17 8.55143 17 8.55294C17 8.55446 17 8.556 17 8.55758C17 8.55915 17 8.56076 17 8.56239C17 8.56403 17 8.5657 17 8.5674C17 8.5691 17 8.57083 17 8.57259C17 8.57435 17 8.57615 17 8.57797C17 8.57979 17 8.58165 17 8.58353C17 8.58542 17 8.58733 17 8.58928C17 8.59122 17 8.5932 17 8.59521C17 8.59721 17 8.59925 17 8.60132C17 8.60339 17 8.60548 17 8.60761C17 8.60974 17 8.6119 17 8.61409C17 8.61627 17 8.61849 17 8.62074C17 8.62299 17 8.62527 17 8.62757C17 8.62988 17 8.63222 17 8.63459C17 8.63695 17 8.63935 17 8.64178C17 8.6442 17 8.64666 17 8.64914C17 8.65163 17 8.65414 17 8.65669C17 8.65923 17 8.66181 17 8.66441C17 8.66701 17 8.66964 17 8.6723C17 8.67496 17 8.67765 17 8.68037C17 8.68309 17 8.68584 17 8.68861C17 8.69139 17 8.69419 17 8.69703C17 8.69986 17 8.70272 17 8.70561C17 8.7085 17 8.71142 17 8.71437C17 8.71732 17 8.72029 17 8.7233C17 8.7263 17 8.72933 17 8.73239C17 8.73545 17 8.73854 17 8.74166C17 8.74478 17 8.74792 17 8.75109C17 8.75427 17 8.75747 17 8.76069C17 8.76392 17 8.76718 17 8.77046C17 8.77374 17 8.77706 17 8.78039C17 8.78373 17 8.7871 17 8.79049C17 8.79389 17 8.79731 17 8.80075C17 8.8042 17 8.80768 17 8.81118C17 8.81468 17 8.81821 17 8.82177C17 8.82532 17 8.82891 17 8.83252C17 8.83613 17 8.83977 17 8.84343C17 8.84709 17 8.85078 17 8.8545C17 8.85822 17 8.86196 17 8.86573C17 8.8695 17 8.8733 17 8.87712C17 8.88095 17 8.8848 17 8.88867C17 8.89255 17 8.89645 17 8.90038C17 8.90431 17 8.90826 17 8.91224C17 8.91622 17 8.92023 17 8.92426C17 8.92829 17 8.93235 17 8.93643C17 8.94051 17 8.94462 17 8.94876C17 8.95289 17 8.95705 17 8.96124C17 8.96543 17 8.96964 17 8.97387C17 8.97811 17 8.98237 17 8.98666C17 8.99095 17 8.99526 17 8.9996C17 9.00393 17 9.0083 17 9.01269C17 9.01707 17 9.02149 17 9.02592C17 9.03036 17 9.03482 17 9.03931C17 9.0438 17 9.04831 17 9.05284C17 9.05738 17 9.06194 17 9.06653C17 9.07111 17 9.07572 17 9.08035C17 9.08499 17 9.08965 17 9.09433C17 9.09901 17 9.10372 17 9.10845C17 9.11318 17 9.11794 17 9.12271C17 9.12749 17 9.1323 17 9.13712C17 9.14195 17 9.1468 17 9.15167C17 9.15655 17 9.16145 17 9.16637C17 9.17129 17 9.17623 17 9.1812C17 9.18617 17 9.19116 17 9.19618C17 9.20119 17 9.20623 17 9.21129C17 9.21635 17 9.22144 17 9.22655C17 9.23165 17 9.23679 17 9.24194C17 9.24709 17 9.25227 17 9.25747C17 9.26267 17 9.26789 17 9.27314C17 9.27838 17 9.28365 17 9.28894C17 9.29423 17 9.29954 17 9.30488C17 9.31021 17 9.31557 17 9.32095C17 9.32633 17 9.33173 17 9.33716C17 9.34258 17 9.34803 17 9.3535C17 9.35897 17 9.36446 17 9.36997C17 9.37548 17 9.38102 17 9.38657C17 9.39213 17 9.39771 17 9.40331C17 9.40891 17 9.41453 17 9.42017C17 9.42582 17 9.43148 17 9.43717C17 9.44285 17 9.44856 17 9.45429C17 9.46002 17 9.46577 17 9.47154C17 9.47731 17 9.4831 17 9.48892C17 9.49473 17 9.50056 17 9.50642C17 9.51227 17 9.51815 17 9.52405C17 9.52994 17 9.53586 17 9.5418C17 9.54774 17 9.5537 17 9.55968C17 9.56566 17 9.57166 17 9.57768C17 9.5837 17 9.58974 17 9.5958C17 9.60186 17 9.60794 17 9.61404C17 9.62015 17 9.62627 17 9.63241C17 9.63855 17 9.64471 17 9.65089C17 9.65708 17 9.66328 17 9.6695C17 9.67572 17 9.68196 17 9.68822C17 9.69448 17 9.70076 17 9.70706C17 9.71336 17 9.71968 17 9.72602C17 9.73236 17 9.73872 17 9.7451C17 9.75147 17 9.75787 17 9.76429C17 9.7707 17 9.77714 17 9.78359C17 9.79004 17 9.79652 17 9.80301C17 9.8095 17 9.81601 17 9.82254C17 9.82907 17 9.83562 17 9.84219C17 9.84875 17 9.85534 17 9.86194C17 9.86855 17 9.87517 17 9.88181C17 9.88845 17 9.89511 17 9.90179C17 9.90847 17 9.91516 17 9.92188C17 9.92859 17 9.93532 17 9.94207C17 9.94882 17 9.95559 17 9.96237C17 9.96916 17 9.97596 17 9.98279C17 9.98961 17 9.99645 17 10.0033C17 10.0102 17 10.017 17 10.0239C17 10.0308 17 10.0377 17 10.0447C17 10.0516 17 10.0585 17 10.0655C17 10.0724 17 10.0794 17 10.0864C17 10.0934 17 10.1004 17 10.1075C17 10.1145 17 10.1215 17 10.1286C17 10.1357 17 10.1427 17 10.1498C17 10.1569 17 10.1641 17 10.1712C17 10.1783 17 10.1855 17 10.1926C17 10.1998 17 10.207 17 10.2142C17 10.2214 17 10.2286 17 10.2358C17 10.243 17 10.2503 17 10.2575C17 10.2648 17 10.2721 17 10.2794C17 10.2867 17 10.294 17 10.3013C17 10.3086 17 10.316 17 10.3233C17 10.3307 17 10.338 17 10.3454C17 10.3528 17 10.3602 17 10.3676C17 10.3751 17 10.3825 17 10.39C17 10.3974 17 10.4049 17 10.4123C17 10.4198 17 10.4273 17 10.4348C17 10.4423 17 10.4499 17 10.4574C17 10.465 17 10.4725 17 10.4801C17 10.4876 17 10.4952 17 10.5028C17 10.5104 17 10.518 17 10.5257C17 10.5333 17 10.541 17 10.5486C17 10.5563 17 10.5639 17 10.5716C17 10.5793 17 10.587 17 10.5947C17 10.6024 17 10.6102 17 10.6179C17 10.6257 17 10.6334 17 10.6412C17 10.649 17 10.6568 17 10.6646C17 10.6724 17 10.6802 17 10.688C17 10.6958 17 10.7037 17 10.7115C17 10.7194 17 10.7272 17 10.7351C17 10.743 17 10.7509 17 10.7588C17 10.7667 17 10.7746 17 10.7826C17 10.7905 17 10.7984 17 10.8064C17 10.8144 17 10.8223 17 10.8303C17 10.8383 17 10.8463 17 10.8543C17 10.8623 17 10.8704 17 10.8784C17 10.8864 17 10.8945 17 10.9026C17 10.9106 17 10.9187 17 10.9268C17 10.9349 17 10.943 17 10.9511C17 10.9592 17 10.9673 17 10.9755C17 10.9836 17 10.9917 17 10.9999C17 11.0081 17 11.0162 17 11.0244C17 11.0326 17 11.0408 17 11.049C17 11.0572 17 11.0655 17 11.0737C17 11.0819 17 11.0902 17 11.0984C17 11.1067 17 11.1149 17 11.1232C17 11.1315 17 11.1398 17 11.1481C17 11.1564 17 11.1647 17 11.173C17 11.1814 17 11.1897 17 11.198C17 11.2064 17 11.2147 17 11.2231C17 11.2315 17 11.2399 17 11.2482C17 11.2566 17 11.265 17 11.2734C17 11.2819 17 11.2903 17 11.2987C17 11.3071 17 11.3156 17 11.324C17 11.3325 17 11.341 17 11.3494C17 11.3579 17 11.3664 17 11.3749C17 11.3834 17 11.3919 17 11.4004C17 11.4089 17 11.4174 17 11.426C17 11.4345 17 11.443 17 11.4516C17 11.4602 17 11.4687 17 11.4773C17 11.4859 17 11.4944 17 11.503C17 11.5116 17 11.5202 17 11.5288C17 11.5375 17 11.5461 17 11.5547C17 11.5633 17 11.572 17 11.5806C17 11.5893 17 11.5979 17 11.6066C17 11.6153 17 11.6239 17 11.6326C17 11.6413 17 11.65 17 11.6587C17 11.6674 17 11.6761 17 11.6848C17 11.6936 17 11.7023 17 11.711C17 11.7198 17 11.7285 17 11.7373C17 11.746 17 11.7548 17 11.7635C17 11.7723 17 11.7811 17 11.7899C17 11.7987 17 11.8075 17 11.8163C17 11.8251 17 11.8339 17 11.8427C17 11.8515 17 11.8603 17 11.8692C17 11.878 17 11.8868 17 11.8957C17 11.9045 17 11.9134 17 11.9223C17 11.9311 17 11.94 17 11.9489C17 11.9578 17 11.9666 17 11.9755C17 11.9844 17 11.9933 17 12.0022C17 12.0111 17 12.0201 17 12.029C17 12.0379 17 12.0468 17 12.0558C17 12.0647 17 12.0736 17 12.0826C17 12.0915 17 12.1005 17 12.1095C17 12.1184 17 12.1274 17 12.1364C17 12.1453 17 12.1543 17 12.1633C17 12.1723 17 12.1813 17 12.1903C17 12.1993 17 12.2083 17 12.2173C17 12.2263 17 12.2354 17 12.2444C17 12.2534 17 12.2624 17 12.2715C17 12.2805 17 12.2896 17 12.2986C17 12.3077 17 12.3167 17 12.3258C17 12.3348 17 12.3439 17 12.353C17 12.362 17 12.3711 17 12.3802C17 12.3893 17 12.3984 17 12.4075C17 12.4166 17 12.4257 17 12.4348C17 12.4439 17 12.453 17 12.4621C17 12.4712 17 12.4803 17 12.4894C17 12.4986 17 12.5077 17 12.5168C17 12.5259 17 12.5351 17 12.5442C17 12.5534 17 12.5625 17 12.5717C17 12.5808 17 12.59 17 12.5991C17 12.6083 17 12.6174 17 12.6266C17 12.6358 17 12.645 17 12.6541C17 12.6633 17 12.6725 17 12.6817C17 12.6909 17 12.7 17 12.7092C17 12.7184 17 12.7276 17 12.7368C17 12.746 17 12.7552 17 12.7644C17 12.7736 17 12.7828 17 12.7921C17 12.8013 17 12.8105 17 12.8197C17 12.8289 17 12.8382 17 12.8474C17 12.8566 17 12.8658 17 12.8751C17 12.8843 17 12.8935 17 12.9028C17 12.912 17 12.9213 17 12.9305C17 12.9397 17 12.949 17 12.9582C17 12.9675 17 12.9767 17 12.986C17 12.9953 17 13.0045 17 13.0138C17 13.023 17 13.0323 17 13.0416C17 13.0508 17 13.0601 17 13.0694C17 13.0786 17 13.0879 17 13.0972C17 13.1064 17 13.1157 17 13.125C17 13.1343 17 13.1436 17 13.1528C17 13.1621 17 13.1714 17 13.1807C17 13.19 17 13.1993 17 13.2085C17 13.2178 17 13.2271 17 13.2364C17 13.2457 17 13.255 17 13.2643C17 13.2736 17 13.2829 17 13.2922C17 13.3015 17 13.3108 17 13.3201C17 13.3294 17 13.3387 17 13.348C17 13.3573 17 13.3666 17 13.3759C17 13.3852 17 13.3945 17 13.4038C17 13.4131 17 13.4224 17 13.4317C17 13.441 17 13.4503 17 13.4596C17 13.4689 17 13.4782 17 13.4875C17 13.4968 17 13.5061 17 13.5154C17 13.5247 17 13.534 17 13.5433C17 13.5526 17 13.562 17 13.5713C17 13.5806 17 13.5899 17 13.5992C17 13.6085 17 13.6178 17 13.6271C17 13.6364 17 13.6457 17 13.655C17 13.6643 17 13.6736 17 13.6829C17 13.6922 17 13.7015 17 13.7108C17 13.7201 17 13.7294 17 13.7387C17 13.748 17 13.7573 17 13.7666C17 13.7759 17 13.7852 17 13.7945C17 13.8038 17 13.8131 17 13.8224C17 13.8317 17 13.841 17 13.8503C17 13.8596 17 13.8689 17 13.8781C17 13.8874 17 13.8967 17 13.906C17 13.9153 17 13.9246 17 13.9339C17 13.9431 17 13.9524 17 13.9617C17 13.971 17 13.9802 17 13.9895C17 13.9988 17 14.0081 17 14.0173C17 14.0266 17 14.0359 17 14.0451C17 14.0544 17 14.0637 17 14.0729C17 14.0822 17 14.0914 17 14.1007C17 14.11 17 14.1192 17 14.1285C17 14.1377 17 14.147 17 14.1562C17 14.1654 17 14.1747 17 14.1839C17 14.1932 17 14.2024 17 14.2116C17 14.2209 17 14.2301 17 14.2393C17 14.2486 17 14.2578 17 14.267C17 14.2762 17 14.2854 17 14.2947C17 14.3039 17 14.3131 17 14.3223C17 14.3315 17 14.3407 17 14.3499C17 14.3591 17 14.3683 17 14.3775C17 14.3867 17 14.3959 17 14.4051C17 14.4142 17 14.4234 17 14.4326C17 14.4418 17 14.4509 17 14.4601C17 14.4693 17 14.4784 17 14.4876C17 14.4968 17 14.5059 17 14.5151C17 14.5242 17 14.5334 17 14.5425C17 14.5517 17 14.5608 17 14.5699C17 14.5791 17 14.5882 17 14.5973C17 14.6064 17 14.6156 17 14.6247C17 14.6338 17 14.6429 17 14.652C17 14.6611 17 14.6702 17 14.6793C17 14.6884 17 14.6975 17 14.7066C17 14.7156 17 14.7247 17 14.7338C17 14.7429 17 14.7519 17 14.761C17 14.7701 17 14.7791 17 14.7882C17 14.7972 17 14.8063 17 14.8153C17 14.8243 17 14.8334 17 14.8424C17 14.8514 17 14.8604 17 14.8695C17 14.8785 17 14.8875 17 14.8965C17 14.9055 17 14.9145 17 14.9235C17 14.9325 17 14.9414 17 14.9504C17 14.9594 17 14.9684 17 14.9773C17 14.9863 17 14.9953 17 15.0042C17 15.0132 17 15.0221 17 15.031C17 15.04 17 15.0489 17 15.0578C17 15.0668 17 15.0757 17 15.0846C17 15.0935 17 15.1024 17 15.1113C17 15.1202 17 15.1291 17 15.138C17 15.1468 17 15.1557 17 15.1646C17 15.1734 17 15.1823 17 15.1912C17 15.2 17 15.2088 17 15.2177C17 15.2265 17 15.2353 17 15.2442C17 15.253 17 15.2618 17 15.2706C17 15.2794 17 15.2882 17 15.297C17 15.3058 17 15.3146 17 15.3233C17 15.3321 17 15.3409 17 15.3496C17 15.3584 17 15.3671 17 15.3759C17 15.3846 17 15.3933 17 15.4021C17 15.4108 17 15.4195 17 15.4282C17 15.4369 17 15.4456 17 15.4543C17 15.463 17 15.4716 17 15.4803C17 15.489 17 15.4976 17 15.5063C17 15.5149 17 15.5236 17 15.5322C17 15.5408 17 15.5495 17 15.5581C17 15.5667 17 15.5753 17 15.5839C17 15.5925 17 15.6011 17 15.6097C17 15.6182 17 15.6268 17 15.6353C17 15.6439 17 15.6525 17 15.661C17 15.6695 17 15.6781 17 15.6866C17 15.6951 17 15.7036 17 15.7121C17 15.7206 17 15.7291 17 15.7375C17 15.746 17 15.7545 17 15.7629C17 15.7714 17 15.7798 17 15.7883C17 15.7967 17 15.8051 17 15.8136C17 15.822 17 15.8304 17 15.8388C17 15.8472 17 15.8555 17 15.8639C17 15.8723 17 15.8806 17 15.889C17 15.8973 17 15.9057 17 15.914C17 15.9223 17 15.9306 17 15.9389C17 15.9472 17 15.9555 17 15.9638C17 15.9721 17 15.9804 17 15.9886C17 15.9969 17 16.0051 17 16.0134C17 16.0216 17 16.0298 17 16.038C17 16.0463 17 16.0545 17 16.0626C17 16.0708 17 16.079 17 16.0872C17 16.0953 17 16.1035 17 16.1116C17 16.1198 17 16.1279 17 16.136C17 16.1441 17 16.1522 17 16.1603C17 16.1684 17 16.1765 17 16.1846C17 16.1926 17 16.2007 17 16.2087C17 16.2168 17 16.2248 17 16.2328C17 16.2408 17 16.2488 17 16.2568C17 16.2648 17 16.2728 17 16.2807C17 16.2887 17 16.2967 17 16.3046C17 16.3125 17 16.3205 17 16.3284C17 16.3363 17 16.3442 17 16.3521C17 16.36 17 16.3678 17 16.3757C17 16.3835 17 16.3914 17 16.3992C17 16.407 17 16.4149 17 16.4227C17 16.4305 17 16.4383 17 16.446C17 16.4538 17 16.4616 17 16.4693C17 16.4771 17 16.4848 17 16.4925C17 16.5002 17 16.5079 17 16.5156C17 16.5233 17 16.531 17 16.5387C17 16.5463 17 16.554 17 16.5616C17 16.5692 17 16.5768 17 16.5844C17 16.5921 17 16.5996 17 16.6072C17 16.6148 17 16.6223 17 16.6299C17 16.6374 17 16.645 17 16.6525C17 16.66 17 16.6675 17 16.675C17 16.6825 17 16.6899 17 16.6974C17 16.7048 17 16.7123 17 16.7197C17 16.7271 17 16.7345 17 16.7419C17 16.7493 17 16.7567 17 16.764C17 16.7714 17 16.7788 17 16.7861C17 16.7934 17 16.8007 17 16.808C17 16.8153 17 16.8226 17 16.8299C17 16.8371 17 16.8444 17 16.8516C17 16.8588 17 16.8661 17 16.8733C17 16.8805 17 16.8876 17 16.8948C17 16.902 17 16.9091 17 16.9163C17 16.9234 17 16.9305 17 16.9376C17 16.9447 17 16.9518 17 16.9589C17 16.9659 17 16.973 17 16.98C17 16.9871 17 16.9941 17 17.0011C17 17.0081 17 17.0151 17 17.022C17 17.029 17 17.0359 17 17.0429C17 17.0498 17 17.0567 17 17.0636C17 17.0705 17 17.0774 17 17.0842C17 17.0911 17 17.0979 17 17.1048C17 17.1116 17 17.1184 17 17.1252C17 17.132 17 17.1388 17 17.1455C17 17.1523 17 17.159 17 17.1657C17 17.1724 17 17.1791 17 17.1858C17 17.1925 17 17.1992 17 17.2058C17 17.2125 17 17.2191 17 17.2257C17 17.2323 17 17.2389 17 17.2455C17 17.252 17 17.2586 17 17.2651C17 17.2717 17 17.2782 17 17.2847C17 17.2912 17 17.2976 17 17.3041C17 17.3106 17 17.317 17 17.3234C17 17.3298 17 17.3362 17 17.3426C17 17.349 17 17.3554 17 17.3617C17 17.368 17 17.3744 17 17.3807C17 17.387 17 17.3933 17 17.3995C17 17.4058 17 17.412 17 17.4183C17 17.4245 17 17.4307 17 17.4369C17 17.4431 17 17.4492 17 17.4554C17 17.4615 17 17.4677 17 17.4738C17 17.4799 17 17.486 17 17.492C17 17.4981 17 17.5041 17 17.5102C17 17.5162 17 17.5222 17 17.5282C17 17.5342 17 17.5401 17 17.5461C17 17.552 17 17.5579 17 17.5638C17 17.5697 17 17.5756 17 17.5815C17 17.5873 17 17.5932 17 17.599C17 17.6048 17 17.6106 17 17.6164C17 17.6222 17 17.6279 17 17.6337C17 17.6394 17 17.6451 17 17.6508C17 17.6565 17 17.6622 17 17.6678C17 17.6734 17 17.6791 17 17.6847C17 17.6903 17 17.6959 17 17.7014C17 17.707 17 17.7125 17 17.718C17 17.7236 17 17.7291 17 17.7345C17 17.74 17 17.7455 17 17.7509C17 17.7563 17 17.7617 17 17.7671C17 17.7725 17 17.7779 17 17.7832C17 17.7885 17 17.7939 17 17.7992C17 17.8045 17 17.8097 17 17.815C17 17.8202 17 17.8255 17 17.8307C17 17.8359 17 17.841 17 17.8462C17 17.8514 17 17.8565 17 17.8616C17 17.8667 17 17.8718 17 17.8769C17 17.882 17 17.887 17 17.892C17 17.897 17 17.902 17 17.907C17 17.912 17 17.9169 17 17.9219C17 17.9268 17 17.9317 17 17.9366C17 17.9415 17 17.9463 17 17.9511C17 17.956 17 17.9608 17 17.9656C17 17.9703 17 17.9751 17 17.9798C17 17.9846 17 17.9893 17 17.994C17 17.9987 17 18.0033 17 18.008C17 18.0126 17 18.0172 17 18.0218C17 18.0264 17 18.031 17 18.0355C17 18.0401 17 18.0446 17 18.0491C17 18.0536 17 18.058 17 18.0625C17 18.0669 17 18.0713 17 18.0757C17 18.0801 17 18.0845 17 18.0888C17 18.0932 17 18.0975 17 18.1018C17 18.1061 17 18.1104 17 18.1146C17 18.1188 17 18.1231 17 18.1272C17 18.1314 17 18.1356 17 18.1397C17 18.1439 17 18.148 17 18.1521C17 18.1562 17 18.1602 17 18.1643C17 18.1683 17 18.1723 17 18.1763C17 18.1803 17 18.1843 17 18.1882C17 18.1921 17 18.196 17 18.1999C17 18.2038 17 18.2077 17 18.2115C17 18.2153 17 18.2191 17 18.2229C17 18.2267 17 18.2304 17 18.2342C17 18.2379 17 18.2416 17 18.2452C17 18.2489 17 18.2526 17 18.2562C17 18.2598 17 18.2634 17 18.2669C17 18.2705 17 18.274 17 18.2775C17 18.2811 17 18.2845 17 18.288C17 18.2914 17 18.2949 17 18.2983C17 18.3017 17 18.305 17 18.3084C17 18.3117 17 18.3151 17 18.3183C17 18.3216 17 18.3249 17 18.3281C17 18.3314 17 18.3346 17 18.3378C17 18.3409 17 18.3441 17 18.3472C17 18.3503 17 18.3534 17 18.3565C17 18.3596 17 18.3626 17 18.3656C17 18.3686 17 18.3716 17 18.3746C17 18.3775 17 18.3804 17 18.3833C17 18.3862 17 18.3891 17 18.3919C17 18.3948 17 18.3976 17 18.4004C17 18.4032 17 18.4059 17 18.4086C17 18.4114 17 18.4141 17 18.4167C17 18.4194 17 18.422 17 18.4246C17 18.4272 17 18.4298 17 18.4324C17 18.4349 17 18.4375 17 18.4399C17 18.4424 17 18.4449 17 18.4473C17 18.4498 17 18.4522 17 18.4545C17 18.4569 17 18.4593 17 18.4616C17 18.4639 17 18.4662 17 18.4684C17 18.4707 17 18.4729 17 18.4751C17 18.4773 17 18.4795 17 18.4816C17 18.4837 17 18.4858 17 18.4879C17 18.49 17 18.492 17 18.494C17 18.4961 17 18.498 17 18.5H19C19 18.498 19 18.4961 19 18.494C19 18.492 19 18.49 19 18.4879C19 18.4858 19 18.4837 19 18.4816C19 18.4795 19 18.4773 19 18.4751C19 18.4729 19 18.4707 19 18.4684C19 18.4662 19 18.4639 19 18.4616C19 18.4593 19 18.4569 19 18.4545C19 18.4522 19 18.4498 19 18.4473C19 18.4449 19 18.4424 19 18.4399C19 18.4375 19 18.4349 19 18.4324C19 18.4298 19 18.4272 19 18.4246C19 18.422 19 18.4194 19 18.4167C19 18.4141 19 18.4114 19 18.4086C19 18.4059 19 18.4032 19 18.4004C19 18.3976 19 18.3948 19 18.3919C19 18.3891 19 18.3862 19 18.3833C19 18.3804 19 18.3775 19 18.3746C19 18.3716 19 18.3686 19 18.3656C19 18.3626 19 18.3596 19 18.3565C19 18.3534 19 18.3503 19 18.3472C19 18.3441 19 18.3409 19 18.3378C19 18.3346 19 18.3314 19 18.3281C19 18.3249 19 18.3216 19 18.3183C19 18.3151 19 18.3117 19 18.3084C19 18.305 19 18.3017 19 18.2983C19 18.2949 19 18.2914 19 18.288C19 18.2845 19 18.2811 19 18.2775C19 18.274 19 18.2705 19 18.2669C19 18.2634 19 18.2598 19 18.2562C19 18.2526 19 18.2489 19 18.2452C19 18.2416 19 18.2379 19 18.2342C19 18.2304 19 18.2267 19 18.2229C19 18.2191 19 18.2153 19 18.2115C19 18.2077 19 18.2038 19 18.1999C19 18.196 19 18.1921 19 18.1882C19 18.1843 19 18.1803 19 18.1763C19 18.1723 19 18.1683 19 18.1643C19 18.1602 19 18.1562 19 18.1521C19 18.148 19 18.1439 19 18.1397C19 18.1356 19 18.1314 19 18.1272C19 18.1231 19 18.1188 19 18.1146C19 18.1104 19 18.1061 19 18.1018C19 18.0975 19 18.0932 19 18.0888C19 18.0845 19 18.0801 19 18.0757C19 18.0713 19 18.0669 19 18.0625C19 18.058 19 18.0536 19 18.0491C19 18.0446 19 18.0401 19 18.0355C19 18.031 19 18.0264 19 18.0218C19 18.0172 19 18.0126 19 18.008C19 18.0033 19 17.9987 19 17.994C19 17.9893 19 17.9846 19 17.9798C19 17.9751 19 17.9703 19 17.9656C19 17.9608 19 17.956 19 17.9511C19 17.9463 19 17.9415 19 17.9366C19 17.9317 19 17.9268 19 17.9219C19 17.9169 19 17.912 19 17.907C19 17.902 19 17.897 19 17.892C19 17.887 19 17.882 19 17.8769C19 17.8718 19 17.8667 19 17.8616C19 17.8565 19 17.8514 19 17.8462C19 17.841 19 17.8359 19 17.8307C19 17.8255 19 17.8202 19 17.815C19 17.8097 19 17.8045 19 17.7992C19 17.7939 19 17.7885 19 17.7832C19 17.7779 19 17.7725 19 17.7671C19 17.7617 19 17.7563 19 17.7509C19 17.7455 19 17.74 19 17.7345C19 17.7291 19 17.7236 19 17.718C19 17.7125 19 17.707 19 17.7014C19 17.6959 19 17.6903 19 17.6847C19 17.6791 19 17.6734 19 17.6678C19 17.6622 19 17.6565 19 17.6508C19 17.6451 19 17.6394 19 17.6337C19 17.6279 19 17.6222 19 17.6164C19 17.6106 19 17.6048 19 17.599C19 17.5932 19 17.5873 19 17.5815C19 17.5756 19 17.5697 19 17.5638C19 17.5579 19 17.552 19 17.5461C19 17.5401 19 17.5342 19 17.5282C19 17.5222 19 17.5162 19 17.5102C19 17.5041 19 17.4981 19 17.492C19 17.486 19 17.4799 19 17.4738C19 17.4677 19 17.4615 19 17.4554C19 17.4492 19 17.4431 19 17.4369C19 17.4307 19 17.4245 19 17.4183C19 17.412 19 17.4058 19 17.3995C19 17.3933 19 17.387 19 17.3807C19 17.3744 19 17.368 19 17.3617C19 17.3554 19 17.349 19 17.3426C19 17.3362 19 17.3298 19 17.3234C19 17.317 19 17.3106 19 17.3041C19 17.2976 19 17.2912 19 17.2847C19 17.2782 19 17.2717 19 17.2651C19 17.2586 19 17.252 19 17.2455C19 17.2389 19 17.2323 19 17.2257C19 17.2191 19 17.2125 19 17.2058C19 17.1992 19 17.1925 19 17.1858C19 17.1791 19 17.1724 19 17.1657C19 17.159 19 17.1523 19 17.1455C19 17.1388 19 17.132 19 17.1252C19 17.1184 19 17.1116 19 17.1048C19 17.0979 19 17.0911 19 17.0842C19 17.0774 19 17.0705 19 17.0636C19 17.0567 19 17.0498 19 17.0429C19 17.0359 19 17.029 19 17.022C19 17.0151 19 17.0081 19 17.0011C19 16.9941 19 16.9871 19 16.98C19 16.973 19 16.9659 19 16.9589C19 16.9518 19 16.9447 19 16.9376C19 16.9305 19 16.9234 19 16.9163C19 16.9091 19 16.902 19 16.8948C19 16.8876 19 16.8805 19 16.8733C19 16.8661 19 16.8588 19 16.8516C19 16.8444 19 16.8371 19 16.8299C19 16.8226 19 16.8153 19 16.808C19 16.8007 19 16.7934 19 16.7861C19 16.7788 19 16.7714 19 16.764C19 16.7567 19 16.7493 19 16.7419C19 16.7345 19 16.7271 19 16.7197C19 16.7123 19 16.7048 19 16.6974C19 16.6899 19 16.6825 19 16.675C19 16.6675 19 16.66 19 16.6525C19 16.645 19 16.6374 19 16.6299C19 16.6223 19 16.6148 19 16.6072C19 16.5996 19 16.5921 19 16.5844C19 16.5768 19 16.5692 19 16.5616C19 16.554 19 16.5463 19 16.5387C19 16.531 19 16.5233 19 16.5156C19 16.5079 19 16.5002 19 16.4925C19 16.4848 19 16.4771 19 16.4693C19 16.4616 19 16.4538 19 16.446C19 16.4383 19 16.4305 19 16.4227C19 16.4149 19 16.407 19 16.3992C19 16.3914 19 16.3835 19 16.3757C19 16.3678 19 16.36 19 16.3521C19 16.3442 19 16.3363 19 16.3284C19 16.3205 19 16.3125 19 16.3046C19 16.2967 19 16.2887 19 16.2807C19 16.2728 19 16.2648 19 16.2568C19 16.2488 19 16.2408 19 16.2328C19 16.2248 19 16.2168 19 16.2087C19 16.2007 19 16.1926 19 16.1846C19 16.1765 19 16.1684 19 16.1603C19 16.1522 19 16.1441 19 16.136C19 16.1279 19 16.1198 19 16.1116C19 16.1035 19 16.0953 19 16.0872C19 16.079 19 16.0708 19 16.0626C19 16.0545 19 16.0463 19 16.038C19 16.0298 19 16.0216 19 16.0134C19 16.0051 19 15.9969 19 15.9886C19 15.9804 19 15.9721 19 15.9638C19 15.9555 19 15.9472 19 15.9389C19 15.9306 19 15.9223 19 15.914C19 15.9057 19 15.8973 19 15.889C19 15.8806 19 15.8723 19 15.8639C19 15.8555 19 15.8472 19 15.8388C19 15.8304 19 15.822 19 15.8136C19 15.8051 19 15.7967 19 15.7883C19 15.7798 19 15.7714 19 15.7629C19 15.7545 19 15.746 19 15.7375C19 15.7291 19 15.7206 19 15.7121C19 15.7036 19 15.6951 19 15.6866C19 15.6781 19 15.6695 19 15.661C19 15.6525 19 15.6439 19 15.6353C19 15.6268 19 15.6182 19 15.6097C19 15.6011 19 15.5925 19 15.5839C19 15.5753 19 15.5667 19 15.5581C19 15.5495 19 15.5408 19 15.5322C19 15.5236 19 15.5149 19 15.5063C19 15.4976 19 15.489 19 15.4803C19 15.4716 19 15.463 19 15.4543C19 15.4456 19 15.4369 19 15.4282C19 15.4195 19 15.4108 19 15.4021C19 15.3933 19 15.3846 19 15.3759C19 15.3671 19 15.3584 19 15.3496C19 15.3409 19 15.3321 19 15.3233C19 15.3146 19 15.3058 19 15.297C19 15.2882 19 15.2794 19 15.2706C19 15.2618 19 15.253 19 15.2442C19 15.2353 19 15.2265 19 15.2177C19 15.2088 19 15.2 19 15.1912C19 15.1823 19 15.1734 19 15.1646C19 15.1557 19 15.1468 19 15.138C19 15.1291 19 15.1202 19 15.1113C19 15.1024 19 15.0935 19 15.0846C19 15.0757 19 15.0668 19 15.0578C19 15.0489 19 15.04 19 15.031C19 15.0221 19 15.0132 19 15.0042C19 14.9953 19 14.9863 19 14.9773C19 14.9684 19 14.9594 19 14.9504C19 14.9414 19 14.9325 19 14.9235C19 14.9145 19 14.9055 19 14.8965C19 14.8875 19 14.8785 19 14.8695C19 14.8604 19 14.8514 19 14.8424C19 14.8334 19 14.8243 19 14.8153C19 14.8063 19 14.7972 19 14.7882C19 14.7791 19 14.7701 19 14.761C19 14.7519 19 14.7429 19 14.7338C19 14.7247 19 14.7156 19 14.7066C19 14.6975 19 14.6884 19 14.6793C19 14.6702 19 14.6611 19 14.652C19 14.6429 19 14.6338 19 14.6247C19 14.6156 19 14.6064 19 14.5973C19 14.5882 19 14.5791 19 14.5699C19 14.5608 19 14.5517 19 14.5425C19 14.5334 19 14.5242 19 14.5151C19 14.5059 19 14.4968 19 14.4876C19 14.4784 19 14.4693 19 14.4601C19 14.4509 19 14.4418 19 14.4326C19 14.4234 19 14.4142 19 14.4051C19 14.3959 19 14.3867 19 14.3775C19 14.3683 19 14.3591 19 14.3499C19 14.3407 19 14.3315 19 14.3223C19 14.3131 19 14.3039 19 14.2947C19 14.2854 19 14.2762 19 14.267C19 14.2578 19 14.2486 19 14.2393C19 14.2301 19 14.2209 19 14.2116C19 14.2024 19 14.1932 19 14.1839C19 14.1747 19 14.1654 19 14.1562C19 14.147 19 14.1377 19 14.1285C19 14.1192 19 14.11 19 14.1007C19 14.0914 19 14.0822 19 14.0729C19 14.0637 19 14.0544 19 14.0451C19 14.0359 19 14.0266 19 14.0173C19 14.0081 19 13.9988 19 13.9895C19 13.9802 19 13.971 19 13.9617C19 13.9524 19 13.9431 19 13.9339C19 13.9246 19 13.9153 19 13.906C19 13.8967 19 13.8874 19 13.8781C19 13.8689 19 13.8596 19 13.8503C19 13.841 19 13.8317 19 13.8224C19 13.8131 19 13.8038 19 13.7945C19 13.7852 19 13.7759 19 13.7666C19 13.7573 19 13.748 19 13.7387C19 13.7294 19 13.7201 19 13.7108C19 13.7015 19 13.6922 19 13.6829C19 13.6736 19 13.6643 19 13.655C19 13.6457 19 13.6364 19 13.6271C19 13.6178 19 13.6085 19 13.5992C19 13.5899 19 13.5806 19 13.5713C19 13.562 19 13.5526 19 13.5433C19 13.534 19 13.5247 19 13.5154C19 13.5061 19 13.4968 19 13.4875C19 13.4782 19 13.4689 19 13.4596C19 13.4503 19 13.441 19 13.4317C19 13.4224 19 13.4131 19 13.4038C19 13.3945 19 13.3852 19 13.3759C19 13.3666 19 13.3573 19 13.348C19 13.3387 19 13.3294 19 13.3201C19 13.3108 19 13.3015 19 13.2922C19 13.2829 19 13.2736 19 13.2643C19 13.255 19 13.2457 19 13.2364C19 13.2271 19 13.2178 19 13.2085C19 13.1993 19 13.19 19 13.1807C19 13.1714 19 13.1621 19 13.1528C19 13.1436 19 13.1343 19 13.125C19 13.1157 19 13.1064 19 13.0972C19 13.0879 19 13.0786 19 13.0694C19 13.0601 19 13.0508 19 13.0416C19 13.0323 19 13.023 19 13.0138C19 13.0045 19 12.9953 19 12.986C19 12.9767 19 12.9675 19 12.9582C19 12.949 19 12.9397 19 12.9305C19 12.9213 19 12.912 19 12.9028C19 12.8935 19 12.8843 19 12.8751C19 12.8658 19 12.8566 19 12.8474C19 12.8382 19 12.8289 19 12.8197C19 12.8105 19 12.8013 19 12.7921C19 12.7828 19 12.7736 19 12.7644C19 12.7552 19 12.746 19 12.7368C19 12.7276 19 12.7184 19 12.7092C19 12.7 19 12.6909 19 12.6817C19 12.6725 19 12.6633 19 12.6541C19 12.645 19 12.6358 19 12.6266C19 12.6174 19 12.6083 19 12.5991C19 12.59 19 12.5808 19 12.5717C19 12.5625 19 12.5534 19 12.5442C19 12.5351 19 12.5259 19 12.5168C19 12.5077 19 12.4986 19 12.4894C19 12.4803 19 12.4712 19 12.4621C19 12.453 19 12.4439 19 12.4348C19 12.4257 19 12.4166 19 12.4075C19 12.3984 19 12.3893 19 12.3802C19 12.3711 19 12.362 19 12.353C19 12.3439 19 12.3348 19 12.3258C19 12.3167 19 12.3077 19 12.2986C19 12.2896 19 12.2805 19 12.2715C19 12.2624 19 12.2534 19 12.2444C19 12.2354 19 12.2263 19 12.2173C19 12.2083 19 12.1993 19 12.1903C19 12.1813 19 12.1723 19 12.1633C19 12.1543 19 12.1453 19 12.1364C19 12.1274 19 12.1184 19 12.1095C19 12.1005 19 12.0915 19 12.0826C19 12.0736 19 12.0647 19 12.0558C19 12.0468 19 12.0379 19 12.029C19 12.0201 19 12.0111 19 12.0022C19 11.9933 19 11.9844 19 11.9755C19 11.9666 19 11.9578 19 11.9489C19 11.94 19 11.9311 19 11.9223C19 11.9134 19 11.9045 19 11.8957C19 11.8868 19 11.878 19 11.8692C19 11.8603 19 11.8515 19 11.8427C19 11.8339 19 11.8251 19 11.8163C19 11.8075 19 11.7987 19 11.7899C19 11.7811 19 11.7723 19 11.7635C19 11.7548 19 11.746 19 11.7373C19 11.7285 19 11.7198 19 11.711C19 11.7023 19 11.6936 19 11.6848C19 11.6761 19 11.6674 19 11.6587C19 11.65 19 11.6413 19 11.6326C19 11.6239 19 11.6153 19 11.6066C19 11.5979 19 11.5893 19 11.5806C19 11.572 19 11.5633 19 11.5547C19 11.5461 19 11.5375 19 11.5288C19 11.5202 19 11.5116 19 11.503C19 11.4944 19 11.4859 19 11.4773C19 11.4687 19 11.4602 19 11.4516C19 11.443 19 11.4345 19 11.426C19 11.4174 19 11.4089 19 11.4004C19 11.3919 19 11.3834 19 11.3749C19 11.3664 19 11.3579 19 11.3494C19 11.341 19 11.3325 19 11.324C19 11.3156 19 11.3071 19 11.2987C19 11.2903 19 11.2819 19 11.2734C19 11.265 19 11.2566 19 11.2482C19 11.2399 19 11.2315 19 11.2231C19 11.2147 19 11.2064 19 11.198C19 11.1897 19 11.1814 19 11.173C19 11.1647 19 11.1564 19 11.1481C19 11.1398 19 11.1315 19 11.1232C19 11.1149 19 11.1067 19 11.0984C19 11.0902 19 11.0819 19 11.0737C19 11.0655 19 11.0572 19 11.049C19 11.0408 19 11.0326 19 11.0244C19 11.0162 19 11.0081 19 10.9999C19 10.9917 19 10.9836 19 10.9755C19 10.9673 19 10.9592 19 10.9511C19 10.943 19 10.9349 19 10.9268C19 10.9187 19 10.9106 19 10.9026C19 10.8945 19 10.8864 19 10.8784C19 10.8704 19 10.8623 19 10.8543C19 10.8463 19 10.8383 19 10.8303C19 10.8223 19 10.8144 19 10.8064C19 10.7984 19 10.7905 19 10.7826C19 10.7746 19 10.7667 19 10.7588C19 10.7509 19 10.743 19 10.7351C19 10.7272 19 10.7194 19 10.7115C19 10.7037 19 10.6958 19 10.688C19 10.6802 19 10.6724 19 10.6646C19 10.6568 19 10.649 19 10.6412C19 10.6334 19 10.6257 19 10.6179C19 10.6102 19 10.6024 19 10.5947C19 10.587 19 10.5793 19 10.5716C19 10.5639 19 10.5563 19 10.5486C19 10.541 19 10.5333 19 10.5257C19 10.518 19 10.5104 19 10.5028C19 10.4952 19 10.4876 19 10.4801C19 10.4725 19 10.465 19 10.4574C19 10.4499 19 10.4423 19 10.4348C19 10.4273 19 10.4198 19 10.4123C19 10.4049 19 10.3974 19 10.39C19 10.3825 19 10.3751 19 10.3676C19 10.3602 19 10.3528 19 10.3454C19 10.338 19 10.3307 19 10.3233C19 10.316 19 10.3086 19 10.3013C19 10.294 19 10.2867 19 10.2794C19 10.2721 19 10.2648 19 10.2575C19 10.2503 19 10.243 19 10.2358C19 10.2286 19 10.2214 19 10.2142C19 10.207 19 10.1998 19 10.1926C19 10.1855 19 10.1783 19 10.1712C19 10.1641 19 10.1569 19 10.1498C19 10.1427 19 10.1357 19 10.1286C19 10.1215 19 10.1145 19 10.1075C19 10.1004 19 10.0934 19 10.0864C19 10.0794 19 10.0724 19 10.0655C19 10.0585 19 10.0516 19 10.0447C19 10.0377 19 10.0308 19 10.0239C19 10.017 19 10.0102 19 10.0033C19 9.99645 19 9.98961 19 9.98279C19 9.97596 19 9.96916 19 9.96237C19 9.95559 19 9.94882 19 9.94207C19 9.93532 19 9.92859 19 9.92188C19 9.91516 19 9.90847 19 9.90179C19 9.89511 19 9.88845 19 9.88181C19 9.87517 19 9.86855 19 9.86194C19 9.85534 19 9.84875 19 9.84219C19 9.83562 19 9.82907 19 9.82254C19 9.81601 19 9.8095 19 9.80301C19 9.79652 19 9.79004 19 9.78359C19 9.77714 19 9.7707 19 9.76429C19 9.75787 19 9.75147 19 9.7451C19 9.73872 19 9.73236 19 9.72602C19 9.71968 19 9.71336 19 9.70706C19 9.70076 19 9.69448 19 9.68822C19 9.68196 19 9.67572 19 9.6695C19 9.66328 19 9.65708 19 9.65089C19 9.64471 19 9.63855 19 9.63241C19 9.62627 19 9.62015 19 9.61404C19 9.60794 19 9.60186 19 9.5958C19 9.58974 19 9.5837 19 9.57768C19 9.57166 19 9.56566 19 9.55968C19 9.5537 19 9.54774 19 9.5418C19 9.53586 19 9.52994 19 9.52405C19 9.51815 19 9.51227 19 9.50642C19 9.50056 19 9.49473 19 9.48892C19 9.4831 19 9.47731 19 9.47154C19 9.46577 19 9.46002 19 9.45429C19 9.44856 19 9.44285 19 9.43717C19 9.43148 19 9.42582 19 9.42017C19 9.41453 19 9.40891 19 9.40331C19 9.39771 19 9.39213 19 9.38657C19 9.38102 19 9.37548 19 9.36997C19 9.36446 19 9.35897 19 9.3535C19 9.34803 19 9.34258 19 9.33716C19 9.33173 19 9.32633 19 9.32095C19 9.31557 19 9.31021 19 9.30488C19 9.29954 19 9.29423 19 9.28894C19 9.28365 19 9.27838 19 9.27314C19 9.26789 19 9.26267 19 9.25747C19 9.25227 19 9.24709 19 9.24194C19 9.23679 19 9.23165 19 9.22655C19 9.22144 19 9.21635 19 9.21129C19 9.20623 19 9.20119 19 9.19618C19 9.19116 19 9.18617 19 9.1812C19 9.17623 19 9.17129 19 9.16637C19 9.16145 19 9.15655 19 9.15167C19 9.1468 19 9.14195 19 9.13712C19 9.1323 19 9.12749 19 9.12271C19 9.11794 19 9.11318 19 9.10845C19 9.10372 19 9.09901 19 9.09433C19 9.08965 19 9.08499 19 9.08035C19 9.07572 19 9.07111 19 9.06653C19 9.06194 19 9.05738 19 9.05284C19 9.04831 19 9.0438 19 9.03931C19 9.03482 19 9.03036 19 9.02592C19 9.02149 19 9.01707 19 9.01269C19 9.0083 19 9.00393 19 8.9996C19 8.99526 19 8.99095 19 8.98666C19 8.98237 19 8.97811 19 8.97387C19 8.96964 19 8.96543 19 8.96124C19 8.95705 19 8.95289 19 8.94876C19 8.94462 19 8.94051 19 8.93643C19 8.93235 19 8.92829 19 8.92426C19 8.92023 19 8.91622 19 8.91224C19 8.90826 19 8.90431 19 8.90038C19 8.89645 19 8.89255 19 8.88867C19 8.8848 19 8.88095 19 8.87712C19 8.8733 19 8.8695 19 8.86573C19 8.86196 19 8.85822 19 8.8545C19 8.85078 19 8.84709 19 8.84343C19 8.83977 19 8.83613 19 8.83252C19 8.82891 19 8.82532 19 8.82177C19 8.81821 19 8.81468 19 8.81118C19 8.80768 19 8.8042 19 8.80075C19 8.79731 19 8.79389 19 8.79049C19 8.7871 19 8.78373 19 8.78039C19 8.77706 19 8.77374 19 8.77046C19 8.76718 19 8.76392 19 8.76069C19 8.75747 19 8.75427 19 8.75109C19 8.74792 19 8.74478 19 8.74166C19 8.73854 19 8.73545 19 8.73239C19 8.72933 19 8.7263 19 8.7233C19 8.72029 19 8.71732 19 8.71437C19 8.71142 19 8.7085 19 8.70561C19 8.70272 19 8.69986 19 8.69703C19 8.69419 19 8.69139 19 8.68861C19 8.68584 19 8.68309 19 8.68037C19 8.67765 19 8.67496 19 8.6723C19 8.66964 19 8.66701 19 8.66441C19 8.66181 19 8.65923 19 8.65669C19 8.65414 19 8.65163 19 8.64914C19 8.64666 19 8.6442 19 8.64178C19 8.63935 19 8.63695 19 8.63459C19 8.63222 19 8.62988 19 8.62757C19 8.62527 19 8.62299 19 8.62074C19 8.61849 19 8.61627 19 8.61409C19 8.6119 19 8.60974 19 8.60761C19 8.60548 19 8.60339 19 8.60132C19 8.59925 19 8.59721 19 8.59521C19 8.5932 19 8.59122 19 8.58928C19 8.58733 19 8.58542 19 8.58353C19 8.58165 19 8.57979 19 8.57797C19 8.57615 19 8.57435 19 8.57259C19 8.57083 19 8.5691 19 8.5674C19 8.5657 19 8.56403 19 8.56239C19 8.56076 19 8.55915 19 8.55758C19 8.556 19 8.55446 19 8.55294C19 8.55143 19 8.54995 19 8.5485C19 8.54705 19 8.54563 19 8.54425C19 8.54286 19 8.54151 19 8.54019C19 8.53886 19 8.53757 19 8.53631C19 8.53505 19 8.53383 19 8.53263C19 8.53144 19 8.53027 19 8.52914C19 8.52801 19 8.52691 19 8.52585C19 8.52478 19 8.52375 19 8.52275C19 8.52175 19 8.52078 19 8.51984C19 8.5189 19 8.518 19 8.51713C19 8.51626 19 8.51542 19 8.51461C19 8.51381 19 8.51303 19 8.51229C19 8.51155 19 8.51085 19 8.51017C19 8.5095 19 8.50886 19 8.50825C19 8.50764 19 8.50707 19 8.50653C19 8.50599 19 8.50548 19 8.505C19 8.50453 19 8.50409 19 8.50368C19 8.50327 19 8.5029 19 8.50256C19 8.50222 19 8.50191 19 8.50164C19 8.50137 19 8.50113 19 8.50092C19 8.50072 19 8.50055 19 8.50041C19 8.50027 19 8.50017 19 8.5001C19 8.50003 19 8.5 18 8.5ZM17 18.5C17 18.8459 16.9142 18.7966 17.0429 18.6679C17.1026 18.6082 17.1791 18.5633 17.2619 18.5357C17.3016 18.5225 17.3412 18.5137 17.3801 18.5081C17.3996 18.5053 17.4193 18.5033 17.4391 18.502C17.449 18.5013 17.4591 18.5008 17.4692 18.5005C17.4743 18.5003 17.4794 18.5002 17.4845 18.5001C17.4871 18.5001 17.4896 18.5001 17.4922 18.5C17.4935 18.5 17.4948 18.5 17.4961 18.5C17.4967 18.5 17.4977 18.5 17.498 18.5C17.499 18.5 17.5 18.5 17.5 19.5C17.5 20.5 17.501 20.5 17.502 20.5C17.5023 20.5 17.5033 20.5 17.5039 20.5C17.5053 20.5 17.5066 20.5 17.508 20.5C17.5107 20.4999 17.5134 20.4999 17.5162 20.4999C17.5218 20.4998 17.5277 20.4996 17.5337 20.4994C17.5457 20.4991 17.5585 20.4984 17.5721 20.4975C17.5993 20.4957 17.6297 20.4927 17.6629 20.488C17.7291 20.4785 17.8078 20.4619 17.8944 20.4331C18.0709 20.3742 18.2724 20.2668 18.4571 20.0821C18.8358 19.7034 19 19.1541 19 18.5H17ZM17.5 18.5H7V20.5H17.5V18.5ZM7 19.5C7 18.5 7.00049 18.5 7.00097 18.5C7.00112 18.5 7.0016 18.5 7.00191 18.5C7.00254 18.5 7.00315 18.5 7.00375 18.5C7.00496 18.5 7.00611 18.5 7.00721 18.5C7.00942 18.5 7.01143 18.5001 7.01326 18.5001C7.01691 18.5002 7.01983 18.5002 7.02208 18.5003C7.02655 18.5005 7.02849 18.5006 7.02828 18.5006C7.02752 18.5005 7.01991 18.4999 7.00815 18.498C6.97989 18.4933 6.9575 18.4857 6.94721 18.4806C6.94084 18.4774 6.96489 18.4883 6.9883 18.5234C7.01588 18.5648 7 18.575 7 18.5L5 18.5C5 18.925 5.10912 19.3102 5.3242 19.6328C5.53511 19.9492 5.80916 20.1476 6.05279 20.2694C6.2925 20.3893 6.52011 20.4442 6.67935 20.4708C6.76134 20.4844 6.83186 20.4917 6.88578 20.4955C6.91292 20.4974 6.93634 20.4986 6.95545 20.4992C6.96503 20.4995 6.97357 20.4997 6.981 20.4998C6.98472 20.4999 6.98817 20.4999 6.99134 20.5C6.99292 20.5 6.99444 20.5 6.99588 20.5C6.9966 20.5 6.99731 20.5 6.99799 20.5C6.99834 20.5 6.99884 20.5 6.99901 20.5C6.99951 20.5 7 20.5 7 19.5ZM6 9.5H9.5V7.5H6V9.5ZM10.5 8.5V5H8.5V8.5H10.5ZM9.5 6H15.5V4H9.5V6ZM9.5 9.5H15.5V7.5H9.5V9.5ZM15.5 9.5H18V7.5H15.5V9.5ZM14.5 5V8.5H16.5V5H14.5Z" fill="currentColor"/>
</svg>
