<svg width="24" height="24" viewBox="0 0 24 24" fill="none" xmlns="http://www.w3.org/2000/svg">
<path fill-rule="evenodd" clip-rule="evenodd" d="M17.2929 5.29289C17.6834 4.90237 18.3166 4.90237 18.7071 5.29289C19.0976 5.68342 19.0976 6.31658 18.7071 6.70711C16.7123 8.70191 14.7429 10.6291 12.9427 12.3675C15.5138 14.8301 17.5953 16.7724 18.6757 17.7628C19.0828 18.136 19.1104 18.7686 18.7372 19.1757C18.364 19.5828 17.7314 19.6103 17.3243 19.2372C16.2256 18.23 14.1097 16.2554 11.5 13.7551C8.89034 16.2554 6.77446 18.23 5.67573 19.2372C5.26861 19.6103 4.63604 19.5828 4.26285 19.1757C3.88966 18.7686 3.91716 18.136 4.32428 17.7628C5.40473 16.7724 7.48626 14.8301 10.0574 12.3675C8.25711 10.6291 6.2877 8.70191 4.2929 6.70711C3.90237 6.31658 3.90237 5.68342 4.2929 5.29289C4.68342 4.90237 5.31659 4.90237 5.70711 5.29289C7.71305 7.29883 9.69333 9.23624 11.5 10.9803C13.3067 9.23624 15.287 7.29883 17.2929 5.29289Z" fill="currentColor"/>
</svg>
