<svg width="24" height="24" viewBox="0 0 24 24" fill="none" xmlns="http://www.w3.org/2000/svg">
<path fill-rule="evenodd" clip-rule="evenodd" d="M21 7L19.0001 7V7.00185V7.01266V7.02358V7.03459V7.04571V7.05693V7.06825V7.07968V7.0912V7.10282V7.11454V7.12637V7.13829V7.15031V7.16243V7.17464V7.18696V7.19937V7.21188V7.22448V7.23718V7.24998V7.26287V7.27585V7.28893V7.30211V7.31537V7.32873V7.34219V7.35573V7.36937V7.3831V7.39692V7.41083V7.42483V7.43892V7.45311V7.46738V7.48174V7.49618V7.51072V7.52534V7.54005V7.55485V7.56974V7.58471V7.59976V7.6149V7.63013V7.64544V7.66083V7.67631V7.69187V7.70752V7.72325V7.73906V7.75495V7.77092V7.78697V7.80311V7.81932V7.83562V7.85199V7.86844V7.88498V7.90158V7.91827V7.93504V7.95188V7.9688V7.98579V8.00286V8.02001V8.03723V8.05453V8.0719V8.08934V8.10686V8.12445V8.14211V8.15985V8.17766V8.19554V8.21349V8.23151V8.2496V8.26776V8.28599V8.30429V8.32266V8.3411V8.3596V8.37818V8.39682V8.41552V8.4343V8.45314V8.47204V8.49101V8.51005V8.52915V8.54831V8.56754V8.58683V8.60619V8.6256V8.64508V8.66462V8.68422V8.70389V8.72361V8.74339V8.76323V8.78314V8.8031V8.82312V8.8432V8.86333V8.88353V8.90378V8.92408V8.94445V8.96486V8.98534V9.00587V9.02645V9.04709V9.06778V9.08853V9.10933V9.13018V9.15108V9.17204V9.19304V9.2141V9.23521V9.25637V9.27758V9.29884V9.32014V9.3415V9.36291V9.38436V9.40586V9.42741V9.449V9.47064V9.49233V9.51406V9.53584V9.55766V9.57953V9.60144V9.62339V9.64539V9.66743V9.68951V9.71164V9.7338V9.75601V9.77826V9.80055V9.82288V9.84525V9.86766V9.89011V9.91259V9.93511V9.95768V9.98028V10.0029V10.0256V10.0483V10.071V10.0938V10.1166V10.1395V10.1624V10.1853V10.2082V10.2312V10.2542V10.2773V10.3004V10.3235V10.3466V10.3698V10.393V10.4162V10.4395V10.4628V10.4861V10.5095V10.5328V10.5562V10.5797V10.6031V10.6266V10.6501V10.6737V10.6972V10.7208V10.7444V10.7681V10.7917V10.8154V10.8391V10.8628V10.8866V10.9104V10.9341V10.958V10.9818V11.0056V11.0295V11.0534V11.0773V11.1012V11.1252V11.1492V11.1731V11.1971V11.2212V11.2452V11.2692V11.2933V11.3174V11.3415V11.3656V11.3897V11.4138V11.438V11.4621V11.4863V11.5105V11.5347V11.5589V11.5831V11.6073V11.6316V11.6558V11.6801V11.7043V11.7286V11.7529V11.7772V11.8015V11.8258V11.8501V11.8744V11.8987V11.923V11.9474V11.9717V11.996V12.0204V12.0447V12.0691V12.0934V12.1178V12.1421V12.1665V12.1908V12.2152V12.2395V12.2639V12.2882V12.3126V12.3369V12.3613V12.3856V12.41V12.4343V12.4587V12.483V12.5073V12.5316V12.556V12.5803V12.6046V12.6289V12.6532V12.6775V12.7017V12.726V12.7503V12.7745V12.7988V12.823V12.8472V12.8715V12.8957V12.9199V12.944V12.9682V12.9924V13.0165V13.0406V13.0648V13.0889V13.113V13.137V13.1611V13.1852V13.2092V13.2332V13.2572V13.2812V13.3052V13.3291V13.353V13.3769V13.4008V13.4247V13.4486V13.4724V13.4962V13.52V13.5438V13.5675V13.5912V13.6149V13.6386V13.6623V13.6859V13.7095V13.7331V13.7567V13.7802V13.8037V13.8272V13.8507V13.8741V13.8975V13.9209V13.9442V13.9676V13.9908V14.0141V14.0373V14.0606V14.0837V14.1069V14.13V14.1531V14.1761V14.1991V14.2221V14.2451V14.268V14.2909V14.3137V14.3365V14.3593V14.3821V14.4048V14.4274V14.4501V14.4727V14.4952V14.5178V14.5402V14.5627V14.5851V14.6075V14.6298V14.6521V14.6743V14.6965V14.7187V14.7408V14.7629V14.785V14.807V14.8289V14.8508V14.8727V14.8945V14.9163V14.938V14.9597V14.9813V15.0029V15.0245V15.046V15.0674V15.0888V15.1102V15.1315V15.1528V15.174V15.1951V15.2162V15.2373V15.2583V15.2793V15.3002V15.321V15.3418V15.3626V15.3833V15.4039V15.4245V15.445V15.4655V15.4859V15.5063V15.5266V15.5468V15.567V15.5871V15.6072V15.6272V15.6472V15.6671V15.687V15.7067V15.7265V15.7461V15.7657V15.7853V15.8047V15.8242V15.8435C19.0001 16.2106 18.8495 16.5278 18.6729 16.7756C18.4955 17.0243 18.2696 17.235 18.0614 17.4007C17.851 17.5681 17.6433 17.7016 17.4896 17.7928C17.4123 17.8387 17.3472 17.8747 17.3006 17.8996C17.2773 17.9121 17.2585 17.9219 17.245 17.9288L17.2287 17.9371L17.2237 17.9396L17.222 17.9404L17.2214 17.9407L17.2211 17.9409C17.221 17.9409 17.2209 17.941 17.0001 17.4924L17.2209 17.941C17.1522 17.9748 17.0767 17.9924 17.0001 17.9924H7.00013C6.87901 17.9924 6.76201 17.9484 6.67087 17.8686L7.00013 17.4924C6.67087 17.8686 6.67078 17.8686 6.6707 17.8685L6.6705 17.8683L6.67004 17.8679L6.66884 17.8669L6.66536 17.8638L6.65425 17.8538C6.64505 17.8456 6.63233 17.834 6.6166 17.8193C6.58517 17.7901 6.54149 17.7485 6.48963 17.6964C6.3865 17.5929 6.24803 17.445 6.10828 17.2687C5.8507 16.9436 5.50019 16.4138 5.50013 15.8436C5.49995 14.1947 5.49995 11.8588 5.49999 9.9351L5.50008 7.49616L5.5001 7L3 7V6H21V7ZM6.5001 7L18.0001 7V7.00185V7.01266V7.02358V7.03459V7.04571V7.05693V7.06825V7.07968V7.0912V7.10282V7.11454V7.12637V7.13829V7.15031V7.16243V7.17464V7.18696V7.19937V7.21188V7.22448V7.23718V7.24998V7.26287V7.27585V7.28893V7.30211V7.31537V7.32873V7.34219V7.35573V7.36937V7.3831V7.39692V7.41083V7.42483V7.43892V7.45311V7.46738V7.48174V7.49618V7.51072V7.52534V7.54005V7.55485V7.56974V7.58471V7.59976V7.6149V7.63013V7.64544V7.66083V7.67631V7.69187V7.70752V7.72325V7.73906V7.75495V7.77092V7.78697V7.80311V7.81932V7.83562V7.85199V7.86844V7.88498V7.90158V7.91827V7.93504V7.95188V7.9688V7.98579V8.00286V8.02001V8.03723V8.05453V8.0719V8.08934V8.10686V8.12445V8.14211V8.15985V8.17766V8.19554V8.21349V8.23151V8.2496V8.26776V8.28599V8.30429V8.32266V8.3411V8.3596V8.37818V8.39682V8.41552V8.4343V8.45314V8.47204V8.49101V8.51005V8.52915V8.54831V8.56754V8.58683V8.60619V8.6256V8.64508V8.66462V8.68422V8.70389V8.72361V8.74339V8.76323V8.78314V8.8031V8.82312V8.8432V8.86333V8.88353V8.90378V8.92408V8.94445V8.96486V8.98534V9.00587V9.02645V9.04709V9.06778V9.08853V9.10933V9.13018V9.15108V9.17204V9.19304V9.2141V9.23521V9.25637V9.27758V9.29884V9.32014V9.3415V9.36291V9.38436V9.40586V9.42741V9.449V9.47064V9.49233V9.51406V9.53584V9.55766V9.57953V9.60144V9.62339V9.64539V9.66743V9.68951V9.71164V9.7338V9.75601V9.77826V9.80055V9.82288V9.84525V9.86766V9.89011V9.91259V9.93511V9.95768V9.98028V10.0029V10.0256V10.0483V10.071V10.0938V10.1166V10.1395V10.1624V10.1853V10.2082V10.2312V10.2542V10.2773V10.3004V10.3235V10.3466V10.3698V10.393V10.4162V10.4395V10.4628V10.4861V10.5095V10.5328V10.5562V10.5797V10.6031V10.6266V10.6501V10.6737V10.6972V10.7208V10.7444V10.7681V10.7917V10.8154V10.8391V10.8628V10.8866V10.9104V10.9341V10.958V10.9818V11.0056V11.0295V11.0534V11.0773V11.1012V11.1252V11.1492V11.1731V11.1971V11.2212V11.2452V11.2692V11.2933V11.3174V11.3415V11.3656V11.3897V11.4138V11.438V11.4621V11.4863V11.5105V11.5347V11.5589V11.5831V11.6073V11.6316V11.6558V11.6801V11.7043V11.7286V11.7529V11.7772V11.8015V11.8258V11.8501V11.8744V11.8987V11.923V11.9474V11.9717V11.996V12.0204V12.0447V12.0691V12.0934V12.1178V12.1421V12.1665V12.1908V12.2152V12.2395V12.2639V12.2882V12.3126V12.3369V12.3613V12.3856V12.41V12.4343V12.4587V12.483V12.5073V12.5316V12.556V12.5803V12.6046V12.6289V12.6532V12.6775V12.7017V12.726V12.7503V12.7745V12.7988V12.823V12.8472V12.8715V12.8957V12.9199V12.944V12.9682V12.9924V13.0165V13.0406V13.0648V13.0889V13.113V13.137V13.1611V13.1852V13.2092V13.2332V13.2572V13.2812V13.3052V13.3291V13.353V13.3769V13.4008V13.4247V13.4486V13.4724V13.4962V13.52V13.5438V13.5675V13.5912V13.6149V13.6386V13.6623V13.6859V13.7095V13.7331V13.7567V13.7802V13.8037V13.8272V13.8507V13.8741V13.8975V13.9209V13.9442V13.9676V13.9908V14.0141V14.0373V14.0606V14.0837V14.1069V14.13V14.1531V14.1761V14.1991V14.2221V14.2451V14.268V14.2909V14.3137V14.3365V14.3593V14.3821V14.4048V14.4274V14.4501V14.4727V14.4952V14.5178V14.5402V14.5627V14.5851V14.6075V14.6298V14.6521V14.6743V14.6965V14.7187V14.7408V14.7629V14.785V14.807V14.8289V14.8508V14.8727V14.8945V14.9163V14.938V14.9597V14.9813V15.0029V15.0245V15.046V15.0674V15.0888V15.1102V15.1315V15.1528V15.174V15.1951V15.2162V15.2373V15.2583V15.2793V15.3002V15.321V15.3418V15.3626V15.3833V15.4039V15.4245V15.445V15.4655V15.4859V15.5063V15.5266V15.5468V15.567V15.5871V15.6072V15.6272V15.6472V15.6671V15.687V15.7067V15.7265V15.7461V15.7657V15.7853V15.8047V15.8242V15.8435C18.0001 15.9318 17.9633 16.0483 17.8586 16.1951C17.7547 16.3408 17.6056 16.4854 17.4388 16.6182C17.2742 16.7491 17.1069 16.8571 16.9794 16.9328C16.9401 16.9561 16.9051 16.976 16.8757 16.9924H14.75V10.8971V10.6471H14.5H10.5H10.25V10.8971V16.9924H7.19979L7.19815 16.9907C7.1138 16.906 7.00228 16.7867 6.89204 16.6476C6.64964 16.3417 6.50015 16.0471 6.50013 15.8435C6.49995 14.1946 6.49995 11.8588 6.49999 9.93513L6.50008 7.49621L6.5001 7ZM10.75 16.9924H14.25V11.1471H10.75V16.9924ZM16.7787 17.0441C16.7786 17.0441 16.7786 17.0441 16.7787 17.0441L16.7787 17.0441Z" fill="currentColor"/>
</svg>
