<svg width="400" height="400" viewBox="0 0 400 400" fill="none" xmlns="http://www.w3.org/2000/svg">
<path fill-rule="evenodd" clip-rule="evenodd" d="M88.6946 148.326C68.1899 172.406 48.5298 202.268 48.3327 224.589C48.2559 232.987 50.937 240.318 57.3679 245.871C66.6231 253.869 76.8205 256.689 86.968 256.706C101.797 256.727 116.522 250.744 128.052 246.131C147.469 238.366 362.11 145.155 362.11 145.155C364.181 144.118 363.793 142.825 361.201 143.47C360.155 143.732 127.531 206.773 127.531 206.773C123.125 208.019 118.572 208.671 113.993 208.711C96.1153 208.817 80.2072 198.894 80.3358 177.982C80.3856 169.8 82.8903 159.933 88.6946 148.326Z" fill="currentColor"/>
</svg>
